<svg width="308.574951171875px" height="122px" xmlns="http://www.w3.org/2000/svg" viewBox="95.7125244140625 14 308.574951171875 122" style="background: rgba(253, 253, 253, 0);" preserveAspectRatio="xMidYMid"><defs><filter id="editing-extrusion" x="-100%" y="-100%" width="300%" height="300%"><feFlood result="color1" flood-color="#3c4c59"></feFlood><feConvolveMatrix order="7,7" divisor="1" kernelMatrix="1 0 0 0 0 0 0 0 1 0 0 0 0 0 0 0 1 0 0 0 0 0 0 0 1 0 0 0 0 0 0 0 1 0 0 0 0 0 0 0 1 0 0 0 0 0 0 0 1" in="SourceAlpha" result="extrude"></feConvolveMatrix><feComposite in="color1" in2="extrude" result="comp-extrude" operator="in"></feComposite><feOffset dx="3.5" dy="3.5" in="comp-extrude" result="offset-extrude"></feOffset><feMerge><feMergeNode in="offset-extrude"></feMergeNode><feMergeNode in="SourceGraphic"></feMergeNode></feMerge></filter></defs><g filter="url(#editing-extrusion)"><g transform="translate(144.15948700904846, 97.4000015258789)"><path d="M14.21 0L0.51 0L8.32-42.05L8.32-42.05Q14.66-42.75 23.90-42.75L23.90-42.75L23.90-42.75Q33.15-42.75 37.44-40.06L37.44-40.06L37.44-40.06Q41.73-37.38 41.73-31.97L41.73-31.97L41.73-31.97Q41.73-26.56 38.94-23.17L38.94-23.17L38.94-23.17Q36.16-19.78 31.36-18.69L31.36-18.69L31.36-18.69Q32.45-13.38 34.94-9.09L34.94-9.09L34.94-9.09Q37.25-5.06 39.94-3.78L39.94-3.78L39.94-3.78Q38.98-1.09 37.02 0.10L37.02 0.10L37.02 0.10Q35.07 1.28 32.29 1.28L32.29 1.28L32.29 1.28Q29.50 1.28 27.33-0.35L27.33-0.35L27.33-0.35Q25.15-1.98 23.42-4.99L23.42-4.99L23.42-4.99Q19.78-11.52 19.39-21.82L19.39-21.82L19.84-21.82L19.84-21.82Q24.58-21.95 26.94-24.42L26.94-24.42L26.94-24.42Q29.31-26.88 29.31-32.06L29.31-32.06L29.31-32.06Q29.31-38.53 23.87-38.78L23.87-38.78L22.46-38.78L22.46-38.78Q21.89-38.78 21.57-38.72L21.57-38.72L14.21 0ZM72.77 1.28L72.77 1.28L72.77 1.28Q64.58 1.28 63.81-10.37L63.81-10.37L52.80-10.37L52.80-10.37Q51.52-7.42 50.62-4.86L50.62-4.86L48.96 0L40 0L60.16-42.24L73.92-42.24L76.61-11.14L76.61-11.14Q77.25-4.42 79.81-2.43L79.81-2.43L79.81-2.43Q77.95 1.28 72.77 1.28ZM58.30-23.17L54.78-15.04L63.62-15.04L62.85-31.49L62.85-33.22L58.30-23.17ZM108.74-20.61L121.66-21.76L121.66-21.76Q117.06-11.65 117.06 0.06L117.06 0.06L117.06 0.06Q115.33 1.28 112.80 1.28L112.80 1.28L112.80 1.28Q110.27 1.28 108.67 0.10L108.67 0.10L108.67 0.10Q107.07-1.09 106.75-2.30L106.75-2.30L106.75-2.30Q105.15-0.64 102.56 0.32L102.56 0.32L102.56 0.32Q99.97 1.28 97.22 1.28L97.22 1.28L97.22 1.28Q94.46 1.28 92.06 0.38L92.06 0.38L92.06 0.38Q89.66-0.51 87.81-2.50L87.81-2.50L87.81-2.50Q83.71-6.85 83.71-15.10L83.71-15.10L83.71-15.10Q83.71-27.90 90.56-35.58L90.56-35.58L90.56-35.58Q97.60-43.52 110.08-43.52L110.08-43.52L110.08-43.52Q118.72-43.52 121.79-39.04L121.79-39.04L121.79-39.04Q122.75-37.63 122.75-35.94L122.75-35.94L122.75-35.94Q122.75-34.24 122.02-32.80L122.02-32.80L122.02-32.80Q121.28-31.36 120.13-30.21L120.13-30.21L120.13-30.21Q117.38-27.65 113.98-27.65L113.98-27.65L113.98-27.65Q112.64-27.65 111.36-28.10L111.36-28.10L111.36-28.10Q111.62-30.02 111.62-32.26L111.62-32.26L111.62-32.26Q111.62-34.50 111.46-35.52L111.46-35.52L111.46-35.52Q111.30-36.54 110.91-37.38L110.91-37.38L110.91-37.38Q110.08-39.10 108.26-39.10L108.26-39.10L108.26-39.10Q106.43-39.10 104.42-37.15L104.42-37.15L104.42-37.15Q102.40-35.20 100.80-32L100.80-32L100.80-32Q97.28-24.83 97.28-16.19L97.28-16.19L97.28-16.19Q97.28-12.22 98.82-9.41L98.82-9.41L98.82-9.41Q100.48-6.34 103.42-6.34L103.42-6.34L103.42-6.34Q104.45-6.34 105.38-6.85L105.38-6.85L105.38-6.85Q106.30-7.36 106.69-7.74L106.69-7.74L108.74-20.61ZM148.67-4.80L148.67-4.80L148.67-4.80Q148.67-9.28 150.46-18.24L150.46-18.24L140.99-18.24L137.47 0L124.10 0L132.22-42.24L145.73-42.24L142.02-23.36L151.49-23.36L155.01-42.24L168.51-42.24L168.51-42.24Q167.62-37.50 166.46-32.19L166.46-32.19L164.29-21.76L164.29-21.76Q161.86-9.60 161.86-4.29L161.86-4.29L161.86-4.29Q161.86-2.11 162.56-0.90L162.56-0.90L162.56-0.90Q159.36 1.28 155.62 1.28L155.62 1.28L155.62 1.28Q151.87 1.28 150.27-0.51L150.27-0.51L150.27-0.51Q148.67-2.30 148.67-4.80ZM171.26-9.47L171.26-9.47L171.26-9.47Q171.26-11.97 171.90-15.17L171.90-15.17L177.09-42.24L191.23-42.24L186.11-14.98L186.11-14.98Q185.54-11.97 185.54-9.76L185.54-9.76L185.54-9.76Q185.54-7.55 186.46-6.40L186.46-6.40L186.46-6.40Q187.39-5.25 189.12-5.25L189.12-5.25L189.12-5.25Q190.85-5.25 191.94-5.70L191.94-5.70L191.94-5.70Q193.02-6.14 193.92-7.23L193.92-7.23L193.92-7.23Q195.65-9.41 196.74-14.98L196.74-14.98L201.92-42.24L211.58-42.24L206.46-15.04L206.46-15.04Q204.67-5.95 199.74-2.30L199.74-2.30L199.74-2.30Q194.94 1.28 185.47 1.28L185.47 1.28L185.47 1.28Q178.37 1.28 174.59-1.79L174.59-1.79L174.59-1.79Q171.26-4.48 171.26-9.47Z" fill="#ffffff"></path></g></g><style>text {
  font-size: 64px;
  font-family: Arial Black;
  dominant-baseline: central;
  text-anchor: middle;
}</style></svg>